<svg width="21" height="21" viewBox="0 0 21 21" fill="none" xmlns="http://www.w3.org/2000/svg">
<path d="M10.5003 0.00500488C6.09622 0.00500488 2.50415 3.59707 2.50415 8.00117C2.50415 9.74798 3.0577 11.4087 4.10343 12.7988L10.0082 20.754C10.0942 20.877 10.328 21 10.5003 21C10.6849 21 10.9064 20.8647 10.9924 20.7539C11.0169 20.717 16.9587 12.7127 17.008 12.6388C17.0203 12.6388 17.0203 12.6388 17.0203 12.6266C17.9798 11.2734 18.4964 9.67415 18.4964 8.00117C18.4965 3.59711 14.9044 0.00500488 10.5003 0.00500488ZM10.5003 12.3068C8.12616 12.3068 6.1947 10.3754 6.1947 8.00117C6.1947 5.62694 8.12616 3.69555 10.5003 3.69555C12.8745 3.69555 14.8059 5.62694 14.8059 8.00117C14.8059 10.3754 12.8745 12.3068 10.5003 12.3068Z" fill="#FF833D"/>
<path d="M10.5 0V3.69054C12.8741 3.69054 14.8056 5.62193 14.8056 7.99616C14.8056 10.3704 12.8741 12.3018 10.5 12.3018V20.995C10.6846 20.995 10.9061 20.8597 10.9921 20.7489C11.0166 20.712 16.9584 12.7077 17.0077 12.6338C17.02 12.6338 17.02 12.6338 17.02 12.6216C17.9795 11.2684 18.4961 9.66915 18.4961 7.99616C18.4962 3.59207 14.9041 0 10.5 0Z" fill="#E86D28"/>
</svg>
